<svg width="18" height="21" viewBox="0 0 18 21" fill="none" xmlns="http://www.w3.org/2000/svg">
<path d="M0.853866 7.87831H17.0761C17.3287 7.87831 17.5353 8.08922 17.5353 8.34699V18.5019C17.5353 19.5369 16.7127 20.3766 15.6988 20.3766H2.23123C1.21734 20.3766 0.394745 19.5369 0.394745 18.5019V8.34699C0.394745 8.08922 0.601349 7.87831 0.853866 7.87831ZM17.5353 6.15979V4.75374C17.5353 3.71872 16.7127 2.87899 15.6988 2.87899H13.8623V0.848019C13.8623 0.590242 13.6557 0.379333 13.4032 0.379333H11.8728C11.6203 0.379333 11.4136 0.590242 11.4136 0.848019V2.87899H6.51636V0.848019C6.51636 0.590242 6.30975 0.379333 6.05724 0.379333H4.52683C4.27432 0.379333 4.06771 0.590242 4.06771 0.848019V2.87899H2.23123C1.21734 2.87899 0.394745 3.71872 0.394745 4.75374V6.15979C0.394745 6.41757 0.601349 6.62848 0.853866 6.62848H17.0761C17.3287 6.62848 17.5353 6.41757 17.5353 6.15979Z" fill="#475FEA"/>
</svg>
