<svg width="20" height="22" viewBox="0 0 20 22" fill="none" xmlns="http://www.w3.org/2000/svg">
<path d="M10.2293 10.6765C13.1717 10.6765 15.5564 8.29176 15.5564 5.34935C15.5564 2.40694 13.1717 0.0222168 10.2293 0.0222168C7.28688 0.0222168 4.90215 2.40694 4.90215 5.34935C4.90215 8.29176 7.28688 10.6765 10.2293 10.6765ZM13.9583 12.0083H13.2633C12.3393 12.4328 11.3114 12.6742 10.2293 12.6742C9.14721 12.6742 8.1234 12.4328 7.19532 12.0083H6.50029C3.41222 12.0083 0.906799 14.5137 0.906799 17.6018V19.3331C0.906799 20.436 1.80159 21.3308 2.90447 21.3308H17.5541C18.657 21.3308 19.5518 20.436 19.5518 19.3331V17.6018C19.5518 14.5137 17.0464 12.0083 13.9583 12.0083Z" fill="#475FEA"/>
</svg>
